# xmcd
#
# Track frame offsets:
#	150
#	13945
#	29340
#	43140
#	62457
#	82725
#	104285
#	120207
#	130782
#	147517
#
# Disc length: 2101 seconds
#
# Revision: 3
# Processed by: cddbd v1.5.2PL0 Copyright (c) Steve Scherf et al.
# Submitted via: EZCDAudioConverter 6.0.7.1
#
DISCID=7b08330a
DTITLE=Dottie West - What Are We Doin' In Love
DYEAR=1995
DGENRE=Country
TTITLE0=A Lesson In Leavin'
TTITLE1=BitterThey Are, Harder They Fall
TTITLE2=What Are We Doin' In Love
TTITLE3=Lay Down Beside Me
TTITLE4=We've Got Tonight
TTITLE5=Sometimes We Touch
TTITLE6=Are You Happy Baby!
TTITLE7=Broken Lady
TTITLE8=I'm So Lonesomre I Could Cry
TTITLE9=Tonight You Belong To Me
EXTD=
EXTT0=
EXTT1=
EXTT2=
EXTT3=
EXTT4=
EXTT5=
EXTT6=
EXTT7=
EXTT8=
EXTT9=
PLAYORDER=
